<svg width="35" height="35" viewBox="1 0 35 35" fill="none" xmlns="http://www.w3.org/2000/svg"><path d="M24.2355 0C24.3169 0 24.3984 0 24.4844 0C24.6842 2.46827 23.7421 4.31256 22.5971 5.64814C21.4736 6.97449 19.9352 8.26088 17.4469 8.06569C17.281 5.63277 18.2246 3.92526 19.3681 2.59276C20.4285 1.35094 22.3727 0.245905 24.2355 0Z" fill="black"></path><path d="M31.7679 25.691C31.7679 25.7156 31.7679 25.7371 31.7679 25.7601C31.0686 27.878 30.0711 29.6931 28.8539 31.3775C27.7427 32.9067 26.381 34.9647 23.9496 34.9647C21.8487 34.9647 20.4532 33.6137 18.2999 33.5768C16.0223 33.54 14.7697 34.7065 12.6872 35C12.4489 35 12.2107 35 11.9771 35C10.4479 34.7787 9.21375 33.5676 8.31466 32.4764C5.66349 29.252 3.6148 25.087 3.23364 19.757C3.23364 19.2344 3.23364 18.7134 3.23364 18.1909C3.39502 14.3763 5.24853 11.2748 7.71219 9.77168C9.01242 8.97248 10.7998 8.29163 12.7901 8.59594C13.6431 8.72812 14.5145 9.02013 15.2784 9.30907C16.0023 9.58725 16.9075 10.0806 17.7651 10.0545C18.3461 10.0376 18.9239 9.73479 19.5095 9.52116C21.2247 8.90179 22.9061 8.19173 25.1223 8.52524C27.7857 8.92791 29.6761 10.1113 30.8442 11.9372C28.5911 13.3711 26.8098 15.532 27.1141 19.2221C27.3846 22.5741 29.3334 24.5352 31.7679 25.691Z" fill="black"></path></svg>