<svg width="80" height="80" fill="none" xmlns="http://www.w3.org/2000/svg"><g clip-path="url(#prefix__clip0_0_135)"><path d="M52.715 62.97l-.016-2.94c-.006-4.264 1.56-8.407 4.492-11.502a23.588 23.588 0 006.483-16.275c0-13.186-10.782-23.854-24.011-23.67-12.961.18-23.448 10.918-23.336 23.88a23.585 23.585 0 006.416 15.995c2.966 3.157 4.56 7.362 4.565 11.694l.016 2.832a4.28 4.28 0 004.28 4.273l16.832-.002a4.279 4.279 0 004.28-4.285z" fill="#79D5AE"></path><path d="M48.366 67.257l-.033 7.532a4.055 4.055 0 01-4.056 4.037l-8.574.002a4.056 4.056 0 01-4.056-4.073l.005-.928.01-2.348.018-4.22 16.686-.002z" fill="#D9EBE9"></path><path d="M48.453 32.499a13.343 13.343 0 00-3.29 7.052H34.825a10.715 10.715 0 00-.738-3.314 10.775 10.775 0 00-2.515-3.746.603.603 0 01-.111-.717 67.337 67.337 0 017.365-11.16c.127-.159.255-.314.382-.467a1.012 1.012 0 011.564.005 72.929 72.929 0 014.333 5.898 73.057 73.057 0 013.433 5.753.608.608 0 01-.084.696z" fill="#fff"></path><path d="M45.17 44.286H34.83V39.55h10.34v4.735z" fill="#FDF088"></path><path d="M46.442 45.541v21.715l-12.884.001V45.541c0-.693.562-1.255 1.256-1.255h10.372c.694 0 1.256.562 1.256 1.255z" fill="#FDF088"></path><path d="M59.505 18.783a1.172 1.172 0 00-.377 1.614 22.442 22.442 0 013.374 11.856c0 5.78-2.189 11.274-6.162 15.47-3.11 3.283-4.82 7.654-4.813 12.313l.016 2.936a3.086 3.086 0 01-.908 2.2 3.086 3.086 0 01-2.199.912h-.822V45.54c0-.918-.513-1.719-1.272-2.13v-3.806a12.13 12.13 0 012.982-6.322 1.787 1.787 0 00.247-2.035 74.782 74.782 0 00-7.89-11.836c-.842-1.033-2.504-1.066-3.376-.013a69.09 69.09 0 00-4.519 6.12 69 69 0 00-3.363 5.709 1.787 1.787 0 00.333 2.105 9.544 9.544 0 012.243 3.337c.374.94.594 1.932.656 2.952 0 .012.003.023.003.035v3.75a2.428 2.428 0 00-1.272 2.134v16.652a1.172 1.172 0 102.344 0V50.886h10.54v15.198H31.603a3.113 3.113 0 01-3.107-3.107l-.016-2.827c-.007-4.713-1.741-9.15-4.883-12.495a22.425 22.425 0 01-6.099-15.203c-.106-12.343 9.844-22.525 22.18-22.697.104-.002.208-.002.311-.002 6.165 0 12.11 2.552 16.353 7.032a1.172 1.172 0 101.702-1.611A24.927 24.927 0 0039.645 7.41c-13.622.19-24.61 11.432-24.491 25.061a24.764 24.764 0 006.734 16.788c2.733 2.909 4.241 6.778 4.247 10.898l.016 2.828a5.462 5.462 0 004.351 5.33l-.018 4.192a1.17 1.17 0 00-.002.28l-.008 1.962a5.192 5.192 0 001.523 3.711A5.192 5.192 0 0035.702 80h8.575a5.239 5.239 0 005.227-5.206l.029-6.477a5.41 5.41 0 002.76-1.49 5.417 5.417 0 001.594-3.863l-.016-2.937c-.006-4.05 1.475-7.848 4.17-10.693a24.74 24.74 0 006.805-17.081c0-4.641-1.289-9.169-3.727-13.093a1.172 1.172 0 00-1.614-.377zm-23.503 21.94h7.996v2.391h-7.996v-2.39zm-3.312-8.769a66.738 66.738 0 013.056-5.149 66.63 66.63 0 013.082-4.31v10.08a1.172 1.172 0 102.344 0V22.55a72.464 72.464 0 012.955 4.145 72.558 72.558 0 013.194 5.319 14.471 14.471 0 00-3.14 6.366h-8.304a11.814 11.814 0 00-3.187-6.426zm2.04 16.588V45.54c0-.046.038-.083.1-.083h10.355c.047 0 .085.037.085.083v3H34.73zm12.43 26.242a2.89 2.89 0 01-2.883 2.871l-8.574.001a2.864 2.864 0 01-2.044-.849 2.864 2.864 0 01-.84-2.047l.004-.936h10.991a1.172 1.172 0 100-2.343H32.833l.013-3.05 14.342-.002-.028 6.355zM39.99 4.51c.647 0 1.171-.524 1.171-1.17V1.171a1.172 1.172 0 10-2.344 0v2.167c0 .647.525 1.172 1.172 1.172zM70.782 31.77h-2.1a1.172 1.172 0 100 2.344h2.1a1.172 1.172 0 100-2.343zM11.317 31.77h-2.1a1.172 1.172 0 100 2.344h2.1a1.172 1.172 0 100-2.343zM60.282 13.181c.306 0 .611-.119.841-.356l1.485-1.532a1.172 1.172 0 10-1.683-1.631l-1.485 1.532a1.172 1.172 0 00.842 1.987zM18.877 53.06l-1.485 1.532a1.172 1.172 0 001.683 1.63l1.485-1.532a1.172 1.172 0 10-1.683-1.63zM61.123 53.06a1.171 1.171 0 10-1.683 1.63l1.485 1.533a1.168 1.168 0 001.657.026c.465-.45.477-1.192.026-1.657l-1.485-1.532zM18.877 12.825a1.168 1.168 0 001.657.026c.465-.45.476-1.192.026-1.657l-1.485-1.532a1.172 1.172 0 10-1.683 1.63l1.485 1.533z" fill="#000"></path></g><defs><clipPath id="prefix__clip0_0_135"><path fill="#fff" d="M0 0h80v80H0z"></path></clipPath></defs></svg>