<svg width="80" height="80" fill="none" xmlns="http://www.w3.org/2000/svg"><g clip-path="url(#prefix__clip0_0_177)"><path d="M37.084 42.038a7.596 7.596 0 004.464 1.44h14.264v6.917l9.043-6.917h3.9c4.206 0 7.615-3.398 7.615-7.59V8.763c0-4.192-3.41-7.59-7.614-7.59H41.548c-4.205 0-7.614 3.398-7.614 7.59v33.275h3.15z" fill="#D9EBE9"></path><path d="M49.285 32.352l.784.635a6.99 6.99 0 004.398 1.557h11.14a1.858 1.858 0 001.857-1.948c-.047-1 .002-10.102.002-11.129a1.858 1.858 0 00-1.858-1.858l-7.555-.023.925-2.19a7.927 7.927 0 00-.42-7.016 1.237 1.237 0 00-2.31.613 8.063 8.063 0 01-2.017 5.335l-4.818 5.45h-1.756v10.574h1.628z" fill="#79D5AE"></path><path d="M48.533 34.029h-5.087a.609.609 0 01-.609-.61V20.454c0-.336.273-.609.61-.609h5.086c.336 0 .608.273.608.61V33.42a.61.61 0 01-.608.608zM37.095 55.631V28.255c0-3.306-2.688-5.986-6.005-5.986H9.635c-3.316 0-6.005 2.68-6.005 5.986v21.39c0 3.306 2.688 5.986 6.005 5.986h11.787v5.505l7.13-5.505h8.543z" fill="#79D5AE"></path><path d="M48.71 51.257H33.484a4.254 4.254 0 00-4.261 4.248v15.18a4.254 4.254 0 004.26 4.247h8.365v3.907l5.06-3.906h1.802a4.255 4.255 0 004.26-4.248v-15.18a4.255 4.255 0 00-4.26-4.248z" fill="#FDF088"></path><path d="M41.096 68.252c3.665-1.942 5.563-3.595 5.563-6.155 0-3.532-4.326-4.415-5.563-1.766-1.412-2.737-5.562-1.765-5.562 1.766 0 2.56 1.898 4.213 5.563 6.155z" fill="#D9EBE9"></path><path d="M68.756 0h-3.44c-1.512 0-1.512 2.344 0 2.344h3.44c3.552 0 6.442 2.88 6.442 6.419v27.124c0 3.54-2.89 6.42-6.442 6.42h-3.901c-.258 0-.508.084-.712.24l-7.159 5.476v-4.545c0-.647-.524-1.172-1.172-1.172H41.548a6.41 6.41 0 01-3.281-.894V28.255a7.151 7.151 0 00-3.161-5.93V8.763c0-3.54 2.89-6.419 6.442-6.419H57.97c1.512 0 1.512-2.344 0-2.344H41.548c-4.845 0-8.787 3.931-8.787 8.763v12.532a7.188 7.188 0 00-1.67-.198H9.634c-3.957 0-7.177 3.21-7.177 7.158v2.53c0 1.512 2.344 1.512 2.344 0v-2.53c0-2.655 2.168-4.814 4.833-4.814H31.09c2.664 0 4.832 2.16 4.832 4.814v13.623a1.173 1.173 0 000 .31v7.457c0 .147-.009.294-.022.44h-2.417a5.437 5.437 0 00-5.344 4.449c-.107.04-.21.096-.304.17l-5.242 4.047v-3.12c0-.647-.525-1.172-1.172-1.172H9.635c-2.665 0-4.833-2.16-4.833-4.814V37.818c0-1.512-2.344-1.512-2.344 0v11.827c0 3.947 3.22 7.158 7.177 7.158H20.25v4.334c0 .94 1.141 1.504 1.888.927l5.913-4.565v13.186c0 2.988 2.437 5.42 5.433 5.42h7.192v2.734c0 .94 1.142 1.505 1.889.928l4.743-3.662h1.402c2.995 0 5.433-2.432 5.433-5.42v-2.081c0-1.512-2.344-1.512-2.344 0v2.08a3.086 3.086 0 01-3.09 3.076h-1.8c-.26 0-.512.087-.717.245l-3.172 2.449v-1.522c0-.647-.524-1.172-1.172-1.172h-8.364a3.086 3.086 0 01-3.09-3.076V55.505a3.086 3.086 0 013.09-3.076H48.71a3.086 3.086 0 013.089 3.076v5.754c0 1.512 2.344 1.512 2.344 0v-5.754c0-2.989-2.438-5.42-5.433-5.42H38.254c.009-.146.013-6.066.013-6.066a8.773 8.773 0 003.28.632h13.094v5.744c0 .938 1.136 1.502 1.884.931l8.727-6.675h3.504c4.844 0 8.786-3.932 8.786-8.764V8.764C77.542 3.93 73.6 0 68.756 0z" fill="#000"></path><path d="M58.08 8.66c-1.488-.38-3.004.795-3.004 2.333 0 1.68-.613 3.3-1.724 4.558l-3.229 3.655a1.17 1.17 0 00-.982-.534h-6.304c-.647 0-1.172.525-1.172 1.172v14.184c0 .648.525 1.172 1.172 1.172h6.304c.474 0 .881-.281 1.066-.685a8.19 8.19 0 004.26 1.201h11.14c1.703 0 3.108-1.477 3.028-3.175-.036-.752.003-10.85.003-11.073 0-1.671-1.36-3.03-3.027-3.03l-5.793-.018.24-.568a9.151 9.151 0 00-.483-8.054A2.388 2.388 0 0058.08 8.66c-.638-.162.638.163 0 0-1.488-.38.638.163 0 0zM47.97 32.855h-3.96v-11.84h3.96v11.84zm17.638-12.075c.378 0 .686.308.686.686l-.005 1.65c-.018 4.53-.03 8.82.004 9.534a.684.684 0 01-.685.721H54.467a5.835 5.835 0 01-3.66-1.296l-.494-.4V22.53l4.797-5.427a9.23 9.23 0 002.31-6.11c0-.066.09-.084.12-.032a6.794 6.794 0 01.358 5.978l-.925 2.191a1.172 1.172 0 001.076 1.628l7.559.023zM12.494 40.709a1.172 1.172 0 100 2.344h3.455l-.645 3.903a1.172 1.172 0 002.312.383l.709-4.286h2.827l-.645 3.903a1.172 1.172 0 002.313.383l.708-4.286h4.703a1.172 1.172 0 100-2.344h-4.315l.472-2.86h3.843a1.172 1.172 0 100-2.343h-3.455l.645-3.904a1.172 1.172 0 00-2.312-.382l-.709 4.286h-2.827l.645-3.904a1.172 1.172 0 00-2.313-.382l-.708 4.285h-4.703a1.172 1.172 0 100 2.344h4.315l-.472 2.86h-3.843zm6.691-2.86h2.828l-.473 2.86h-2.827l.472-2.86zM41.083 58.477a3.941 3.941 0 00-3.469-.78c-1.618.393-3.252 1.906-3.252 4.4 0 1.552.567 2.9 1.732 4.12.952.996 2.326 1.943 4.454 3.071a1.171 1.171 0 001.098 0c3.712-1.968 6.185-3.944 6.185-7.191 0-2.508-1.691-4.005-3.367-4.377-1.26-.28-2.48.017-3.381.757zm4.404 3.62c0 1.751-1.162 3.046-4.39 4.824-3.229-1.778-4.39-3.073-4.39-4.824 0-1.303.754-1.95 1.46-2.122.13-.032.27-.05.413-.05.531 0 1.115.246 1.475.944a1.174 1.174 0 002.104-.042c.379-.813 1.177-.956 1.797-.818.74.164 1.53.799 1.53 2.088z" fill="#000"></path></g><defs><clipPath id="prefix__clip0_0_177"><path fill="#fff" d="M0 0h80v80H0z"></path></clipPath></defs></svg>