<svg width="80" height="80" fill="none" xmlns="http://www.w3.org/2000/svg"><g clip-path="url(#prefix__clip0_0_149)"><path d="M40 78.828c17.768 0 32.172-14.404 32.172-32.172 0-17.768-14.404-32.172-32.172-32.172-17.768 0-32.172 14.404-32.172 32.172 0 17.768 14.404 32.172 32.172 32.172z" fill="#D9EBE9"></path><path d="M45.407 14.94l6.427 13.842a4.322 4.322 0 003.92 2.502A4.322 4.322 0 0160 34.802l1.318 6.965a4.321 4.321 0 01-.238 2.419l-2.757 6.841a4.322 4.322 0 00.901 4.62l1.365 1.411a4.322 4.322 0 011.212 3.168l-.397 10.447c6.606-5.892 10.768-14.468 10.768-24.017 0-15.925-11.572-29.145-26.765-31.717zM43.17 14.64a32.553 32.553 0 00-3.17-.156c-17.768 0-32.172 14.404-32.172 32.172 0 6.53 1.947 12.603 5.29 17.676l5.861-3.96a5.412 5.412 0 002.332-3.749l.51-3.717a5.411 5.411 0 00-.8-3.647l-1.707-2.676a5.412 5.412 0 017.108-7.686l.937.5a5.41 5.41 0 004.205.376l7.852-2.527a5.412 5.412 0 003.754-5.151V14.64z" fill="#79D5AE"></path><path d="M17.813 1.172h44.374v5.071H17.813V1.172zM40 18.646l-15.48-5.805a38.249 38.249 0 00-1.057 6.219L40 25.26l16.537-6.201s-.206-2.96-1.056-6.22L40 18.647z" fill="#FDF088"></path><path d="M40 18.646l15.48-5.805c-.622-2.388-1.59-4.937-3.077-6.598H27.597c-1.486 1.661-2.455 4.21-3.078 6.598L40 18.646z" fill="#FDF088"></path><path d="M40.69 48.433l2.038-.371a3.698 3.698 0 013.495 6.012l-2.985 3.564a3.69 3.69 0 00-.398.579l-2.818 5.071a3.697 3.697 0 01-2.972 1.893l-5.376.378a3.697 3.697 0 01-3.956-3.613l-.017-.785a3.697 3.697 0 012.972-3.701l2.445-.49a3.698 3.698 0 002.908-2.938l.343-1.814a3.698 3.698 0 011.687-2.457l1.348-.835c.394-.243.83-.41 1.285-.493z" fill="#79D5AE"></path><path d="M69.654 31.394a1.172 1.172 0 10-2.083 1.074C69.846 36.882 71 41.655 71 46.656c0 8.144-3.158 15.563-8.312 21.1l.284-7.486a5.515 5.515 0 00-1.54-4.025l-1.365-1.412a3.153 3.153 0 01-.656-3.368l2.756-6.842c.393-.976.498-2.039.302-3.074l-1.317-6.965a5.505 5.505 0 00-1.893-3.209 5.5 5.5 0 00-3.504-1.263 3.16 3.16 0 01-2.858-1.824l-2.614-5.631 6.135-2.3a30.953 30.953 0 018.35 7.654 1.17 1.17 0 001.64.231c.517-.39.62-1.124.231-1.64a33.283 33.283 0 00-8.986-8.238c-.181-1.809-.874-7.152-3.006-10.949h7.54c.648 0 1.172-.524 1.172-1.171V1.172C63.36.525 62.835 0 62.187 0H17.813c-.648 0-1.172.525-1.172 1.172v5.072c0 .647.524 1.172 1.172 1.172h7.54c-2.133 3.798-2.825 9.146-3.006 10.951a33.554 33.554 0 00-11.229 11.615 33.336 33.336 0 00-4.462 16.674c0 8.907 3.468 17.28 9.766 23.578C22.72 76.532 31.093 80 40 80s17.28-3.468 23.578-9.766c6.297-6.298 9.766-14.67 9.766-23.578 0-5.303-1.276-10.58-3.69-15.262zM40 24.01l-15.284-5.732c.097-.862.29-2.284.634-3.874l14.239 5.34a1.172 1.172 0 00.822 0l14.239-5.34c.344 1.59.537 3.012.634 3.874L40 24.01zM31.128 7.416a1.172 1.172 0 000-2.344H18.984V2.344h42.032v2.728h-24.42a1.172 1.172 0 000 2.344h15.256c.976 1.258 1.692 2.972 2.213 4.704L40 17.395 25.935 12.12c.52-1.732 1.237-3.447 2.213-4.705h2.98zm-16.367 57.22l4.875-3.293a6.594 6.594 0 002.836-4.56l.51-3.717a6.579 6.579 0 00-.972-4.439l-1.708-2.675a4.216 4.216 0 01.133-4.759 4.256 4.256 0 013.445-1.762c.69 0 1.378.173 1.99.5l.939.5c1.563.833 3.427 1 5.114.458l2.299-.74a1.172 1.172 0 00-.719-2.232l-2.298.74a4.269 4.269 0 01-3.294-.294l-.937-.5a6.593 6.593 0 00-3.095-.776 6.606 6.606 0 00-5.345 2.735 6.548 6.548 0 00-.208 7.391l1.708 2.675c.541.849.763 1.863.625 2.858l-.51 3.718a4.247 4.247 0 01-1.826 2.937l-4.853 3.278A30.816 30.816 0 019 46.656a30.99 30.99 0 014.147-15.5 31.206 31.206 0 0110.438-10.799l16.004 6.001a1.172 1.172 0 00.822 0l1.587-.595v6.332a4.225 4.225 0 01-2.94 4.035l-.35.112a1.172 1.172 0 00.72 2.231l.348-.112a6.561 6.561 0 004.566-6.266v-7.21l3.74-1.403 2.689 5.792a5.512 5.512 0 004.984 3.181 3.151 3.151 0 013.094 2.565l1.317 6.965a3.146 3.146 0 01-.173 1.763l-2.756 6.84a5.499 5.499 0 001.144 5.873l1.366 1.413c.593.613.915 1.454.883 2.307l-.377 9.926c-5.436 4.702-12.518 7.55-20.253 7.55-10.396 0-19.613-5.145-25.24-13.021z" fill="#000"></path><path d="M42.518 46.91l-2.038.37a4.848 4.848 0 00-1.692.65l-1.349.835A4.88 4.88 0 0035.218 52l-.343 1.815a2.515 2.515 0 01-1.987 2.007l-2.444.489a4.864 4.864 0 00-3.914 4.874l.016.785a4.826 4.826 0 001.585 3.497 4.82 4.82 0 003.626 1.261l5.376-.378a4.853 4.853 0 003.914-2.493l2.818-5.071c.077-.14.169-.273.271-.396l2.986-3.563a4.868 4.868 0 00.43-5.654 4.898 4.898 0 00-5.034-2.264zm2.807 6.412l-2.985 3.563a4.884 4.884 0 00-.525.763l-2.817 5.071a2.517 2.517 0 01-2.03 1.293l-5.376.379a2.503 2.503 0 01-1.88-.655 2.503 2.503 0 01-.823-1.813l-.016-.785a2.523 2.523 0 012.03-2.529l2.445-.489a4.849 4.849 0 003.83-3.87l.343-1.814a2.531 2.531 0 011.152-1.678l1.348-.835c.27-.167.565-.28.878-.337l2.038-.37a2.54 2.54 0 012.611 1.173 2.525 2.525 0 01-.223 2.933z" fill="#000"></path></g><defs><clipPath id="prefix__clip0_0_149"><path fill="#fff" d="M0 0h80v80H0z"></path></clipPath></defs></svg>