<svg width="570" height="490" viewBox="0 0 570 490" fill="none" xmlns="http://www.w3.org/2000/svg">
<path d="M300.032 464.598L554.308 378.473C556.387 377.766 558.102 376.261 559.077 374.288C560.051 372.315 560.204 370.035 559.503 367.949L300.032 464.598ZM300.032 464.598C297.951 465.3 295.677 465.146 293.709 464.17C291.741 463.195 290.239 461.476 289.533 459.391L300.032 464.598ZM440.719 15.7254L559.503 367.949L440.719 15.7254ZM289.533 459.391L170.749 107.168L289.533 459.391ZM170.749 107.167C170.048 105.081 170.202 102.801 171.176 100.828C172.15 98.8555 173.865 97.3506 175.944 96.6436L170.749 107.167ZM175.945 96.6434L430.22 10.5185C432.301 9.8162 434.575 9.96988 436.543 10.9459C438.512 11.9218 440.013 13.6404 440.719 15.7249L175.945 96.6434Z" fill="white" stroke="#F4F4F4"/>
<path d="M491.478 484.942H212.773C210.486 484.939 208.294 484.04 206.678 482.443C205.063 480.846 204.155 478.682 204.153 476.426V95.6202C204.155 93.3644 205.063 91.2006 206.678 89.6037C208.294 88.0067 210.486 87.1073 212.773 87.1046H491.479C493.766 87.1073 495.957 88.0067 497.573 89.6037C499.189 91.2007 500.096 93.3646 500.099 95.6205V476.426C500.096 478.682 499.189 480.846 497.573 482.443C495.957 484.04 493.766 484.939 491.478 484.942Z" fill="white" stroke="#EBECEE"/>
<path d="M429.152 196.56H251.876C250.382 196.56 248.95 195.965 247.894 194.907C246.838 193.849 246.245 192.413 246.245 190.916C246.245 189.42 246.838 187.984 247.894 186.926C248.95 185.868 250.382 185.273 251.876 185.273H429.152C430.645 185.273 432.077 185.868 433.133 186.926C434.189 187.984 434.783 189.42 434.783 190.916C434.783 192.413 434.189 193.849 433.133 194.907C432.077 195.965 430.645 196.56 429.152 196.56Z" fill="#EBECEE"/>
<path d="M452.379 215.606H251.876C251.136 215.606 250.404 215.46 249.721 215.176C249.038 214.892 248.417 214.477 247.894 213.953C247.371 213.429 246.956 212.807 246.673 212.122C246.39 211.437 246.245 210.703 246.245 209.962C246.245 209.221 246.39 208.487 246.673 207.803C246.956 207.118 247.371 206.496 247.894 205.972C248.417 205.448 249.038 205.032 249.721 204.749C250.404 204.465 251.136 204.319 251.876 204.319H452.379C453.873 204.319 455.305 204.914 456.361 205.972C457.417 207.03 458.01 208.466 458.01 209.962C458.01 211.459 457.417 212.894 456.361 213.953C455.305 215.011 453.873 215.606 452.379 215.606Z" fill="#EBECEE"/>
<path d="M429.152 281.914H251.876C250.383 281.912 248.953 281.317 247.898 280.258C246.843 279.2 246.251 277.766 246.251 276.27C246.251 274.775 246.843 273.34 247.898 272.282C248.953 271.224 250.383 270.629 251.876 270.627H429.152C430.645 270.627 432.077 271.222 433.133 272.28C434.189 273.338 434.783 274.774 434.783 276.27C434.783 277.767 434.189 279.202 433.133 280.261C432.077 281.319 430.645 281.914 429.152 281.914Z" fill="#79D5AE"/>
<path d="M452.379 300.959H251.876C250.383 300.958 248.953 300.363 247.898 299.304C246.843 298.246 246.251 296.812 246.251 295.316C246.251 293.821 246.843 292.386 247.898 291.328C248.953 290.27 250.383 289.675 251.876 289.673H452.379C453.873 289.673 455.305 290.268 456.361 291.326C457.417 292.384 458.01 293.82 458.01 295.316C458.01 296.813 457.417 298.248 456.361 299.307C455.305 300.365 453.873 300.959 452.379 300.959Z" fill="#EBECEE"/>
<path d="M429.152 367.267H251.876C250.383 367.266 248.953 366.67 247.898 365.612C246.843 364.554 246.251 363.12 246.251 361.624C246.251 360.129 246.843 358.694 247.898 357.636C248.953 356.578 250.383 355.983 251.876 355.981H429.152C430.645 355.981 432.077 356.575 433.133 357.634C434.189 358.692 434.783 360.127 434.783 361.624C434.783 363.121 434.189 364.556 433.133 365.615C432.077 366.673 430.645 367.267 429.152 367.267Z" fill="#EBECEE"/>
<path d="M452.379 386.313H251.876C250.382 386.313 248.95 385.719 247.894 384.66C246.838 383.602 246.245 382.167 246.245 380.67C246.245 379.173 246.838 377.738 247.894 376.68C248.95 375.621 250.382 375.027 251.876 375.027H452.379C453.873 375.027 455.305 375.621 456.361 376.68C457.417 377.738 458.01 379.173 458.01 380.67C458.01 382.167 457.417 383.602 456.361 384.66C455.305 385.719 453.873 386.313 452.379 386.313Z" fill="#EBECEE"/>
<path d="M143.683 260.981H102.93C102.092 260.98 101.288 260.646 100.696 260.052C100.103 259.458 99.7696 258.653 99.7686 257.813V240.209C99.7686 233.952 102.249 227.952 106.663 223.528C111.077 219.105 117.064 216.619 123.307 216.619C129.55 216.619 135.537 219.105 139.951 223.528C144.365 227.952 146.845 233.952 146.845 240.209V257.813C146.844 258.653 146.511 259.458 145.918 260.052C145.325 260.646 144.522 260.98 143.683 260.981Z" fill="#2F2E41"/>
<path d="M206.582 352.855C205.55 352.801 204.543 352.521 203.631 352.034C202.719 351.548 201.925 350.867 201.304 350.04C200.683 349.213 200.25 348.259 200.037 347.247C199.824 346.234 199.834 345.186 200.068 344.178L178.831 330.754L190.718 325.361L209.063 338.936C210.727 339.442 212.147 340.543 213.056 342.029C213.964 343.515 214.297 345.284 213.991 346.999C213.685 348.715 212.762 350.259 211.397 351.338C210.031 352.417 208.318 352.957 206.582 352.855Z" fill="#FFB8B8"/>
<path d="M191.927 341.903C191.205 341.835 190.517 341.562 189.945 341.115L131.522 295.731L123.989 282.304C123.26 281.013 122.933 279.533 123.049 278.054C123.165 276.574 123.72 275.164 124.641 274.003C125.279 273.195 126.076 272.528 126.983 272.044C127.89 271.56 128.887 271.269 129.911 271.189C130.936 271.109 131.966 271.243 132.936 271.58C133.907 271.918 134.797 272.453 135.552 273.152L200.672 326.084C201.093 326.369 201.454 326.736 201.731 327.163C202.009 327.589 202.199 328.067 202.29 328.569C202.381 329.07 202.371 329.585 202.261 330.082C202.151 330.579 201.943 331.05 201.649 331.466L195.405 340.301C195.109 340.724 194.729 341.082 194.29 341.353C193.85 341.623 193.36 341.801 192.849 341.876C192.544 341.921 192.234 341.93 191.927 341.903Z" fill="#2F2E41"/>
<path d="M54.2391 471.84L62.2246 475.079L78.487 445.752L66.7018 440.973L54.2391 471.84Z" fill="#FFB8B8"/>
<path d="M53.2573 468.401L68.9829 474.778L68.9836 474.779C70.2996 475.312 71.4979 476.101 72.51 477.098C73.5221 478.096 74.3281 479.284 74.8821 480.594C75.4361 481.904 75.7273 483.311 75.7388 484.733C75.7504 486.156 75.4823 487.567 74.9497 488.886L74.8179 489.213L49.0704 478.771L53.2573 468.401Z" fill="#2F2E41"/>
<path d="M147.285 480.844L155.9 480.844L159.998 447.545L147.284 447.546L147.285 480.844Z" fill="#FFB8B8"/>
<path d="M145.089 478.026L162.053 478.025H162.053C163.473 478.025 164.879 478.305 166.191 478.85C167.502 479.394 168.694 480.192 169.698 481.198C170.702 482.204 171.498 483.399 172.042 484.713C172.585 486.028 172.865 487.437 172.865 488.859V489.212L145.089 489.213L145.089 478.026Z" fill="#2F2E41"/>
<path d="M154.383 462.019C150.961 462.019 147.606 460.622 145.755 459.692C145.275 459.454 144.856 459.109 144.531 458.682C144.205 458.256 143.982 457.761 143.878 457.234L125.721 365.492L78.6166 453.815C78.1933 454.61 77.4815 455.212 76.6283 455.495C66.4831 458.893 60.9502 453.548 59.0417 451.093C58.6535 450.589 58.4114 449.988 58.3422 449.355C58.273 448.722 58.3794 448.083 58.6496 447.507L80.4655 400.01L93.6565 354.893L106.99 321.874L107.281 321.906L151.866 326.609L157.287 356.49L162.747 455.984C162.796 456.777 162.571 457.562 162.109 458.208C161.236 459.434 160.073 460.424 158.725 461.089C157.377 461.754 155.885 462.074 154.383 462.019Z" fill="#2F2E41"/>
<path d="M129.116 260.714C138.647 260.714 146.373 252.971 146.373 243.419C146.373 233.867 138.647 226.124 129.116 226.124C119.585 226.124 111.859 233.867 111.859 243.419C111.859 252.971 119.585 260.714 129.116 260.714Z" fill="#FFB8B8"/>
<path d="M135.118 340.344C127.605 340.344 118.308 335.937 107.391 327.184L107.205 327.034L114.924 266.009L115.284 265.996C126.325 265.596 135.31 268.405 142.748 274.605L142.812 274.672L148.844 282.443L148.847 282.585L149.697 330.319L149.676 330.386C148.877 332.571 147.588 334.543 145.908 336.149C144.229 337.755 142.204 338.954 139.989 339.652C138.408 340.12 136.767 340.354 135.118 340.344Z" fill="#79D5AE"/>
<path d="M146.23 368.873C145.387 368.872 144.567 368.591 143.899 368.076C143.23 367.561 142.75 366.839 142.531 366.022L131.935 325.822L125.223 362.447C125.047 363.419 124.502 364.285 123.703 364.863C122.903 365.441 121.912 365.687 120.936 365.549L91.7064 361.461C91.1492 361.383 90.6161 361.183 90.1451 360.875C89.674 360.567 89.2767 360.158 88.9814 359.678C88.6862 359.198 88.5003 358.659 88.437 358.099C88.3738 357.538 88.4347 356.971 88.6155 356.437L103.401 312.765L100.091 287.177C99.7502 284.542 99.96 281.865 100.707 279.315C101.454 276.766 102.722 274.401 104.43 272.369C106.138 270.337 108.249 268.683 110.629 267.513C113.009 266.342 115.606 265.681 118.255 265.57L118.551 265.558L132.61 299.539L134.846 290.575L138.345 271.282L138.868 271.585C143.808 274.44 147.87 278.6 150.611 283.612C153.351 288.623 154.664 294.294 154.406 300.003L153.519 320.437L161.374 362.159C161.56 363.156 161.345 364.186 160.775 365.024C160.205 365.862 159.328 366.44 158.334 366.632L146.942 368.806C146.707 368.851 146.469 368.874 146.23 368.873Z" fill="#2F2E41"/>
<path d="M152.414 241.969H127.494L127.239 238.384L125.961 241.969H122.124L121.618 234.863L119.085 241.969H111.661V241.617C111.666 236.67 113.63 231.927 117.121 228.428C120.611 224.93 125.344 222.962 130.281 222.957H133.794C138.73 222.962 143.463 224.93 146.954 228.428C150.445 231.927 152.408 236.67 152.414 241.617V241.969Z" fill="#2F2E41"/>
<path d="M135.716 349.32C135.715 350.449 135.956 351.566 136.423 352.594C136.89 353.621 137.572 354.537 138.423 355.277C139.274 356.018 140.274 356.567 141.355 356.886C142.436 357.205 143.573 357.288 144.689 357.129C145.718 359.497 147.415 361.512 149.571 362.927C151.727 364.342 154.248 365.096 156.825 365.096C158.563 365.096 160.285 364.753 161.891 364.086C163.497 363.419 164.956 362.442 166.185 361.21C167.414 359.978 168.389 358.516 169.055 356.906C169.72 355.297 170.062 353.572 170.062 351.83V340.335C170.062 337.376 167.669 336.386 164.717 336.386H148.933C145.981 336.386 143.587 337.376 143.587 340.335V341.432C141.5 341.434 139.5 342.266 138.024 343.745C136.549 345.223 135.719 347.228 135.716 349.32ZM137.863 349.32C137.865 347.799 138.468 346.341 139.541 345.265C140.615 344.19 142.07 343.585 143.587 343.583V351.83C143.587 352.911 143.719 353.988 143.979 355.037C143.849 355.045 143.719 355.057 143.587 355.057C142.07 355.055 140.615 354.45 139.541 353.374C138.468 352.299 137.865 350.841 137.863 349.32H137.863Z" fill="#79D5AE"/>
<path d="M142.055 347.423C141.575 346.507 140.9 345.707 140.078 345.08C139.256 344.453 138.307 344.014 137.297 343.795C136.288 343.575 135.243 343.58 134.235 343.809C133.228 344.038 132.283 344.486 131.467 345.12L110.421 331.397L110.502 344.473L130.475 355.5C131.629 356.803 133.221 357.637 134.948 357.843C136.675 358.048 138.417 357.612 139.845 356.616C141.272 355.621 142.285 354.135 142.693 352.441C143.1 350.746 142.873 348.961 142.055 347.423H142.055Z" fill="#FFB8B8"/>
<path d="M119.267 355.404C118.428 355.404 117.624 355.07 117.031 354.476L90.2323 327.619C89.3761 326.766 88.7513 325.709 88.4172 324.547C88.0831 323.384 88.0508 322.156 88.3233 320.977C90.6171 310.927 96.2071 286.912 98.567 281C100.289 276.554 103.478 272.832 107.602 270.452L107.708 270.399L116.192 271.97L116.939 298.196L106.691 320.205L128.482 340.82C129.056 341.359 129.407 342.094 129.468 342.879C129.529 343.664 129.295 344.444 128.811 345.066L121.766 354.176C121.491 354.532 121.143 354.825 120.747 355.035C120.35 355.246 119.913 355.369 119.466 355.398C119.399 355.402 119.333 355.404 119.267 355.404Z" fill="#2F2E41"/>
<path d="M156.795 340.014C162.228 340.014 166.632 339.383 166.632 338.605C166.632 337.827 162.228 337.197 156.795 337.197C151.362 337.197 146.958 337.827 146.958 338.605C146.958 339.383 151.362 340.014 156.795 340.014Z" fill="#2F2E41"/>
</svg>
