<svg width="16" height="16" viewBox="0 0 14 14" fill="none" xmlns="http://www.w3.org/2000/svg"><path d="M10.5605 0.148926H3.97843C2.16851 0.148926 0.687378 1.62942 0.687378 3.43998V10.0221C0.687378 11.832 2.16851 13.3131 3.97843 13.3131H10.5605C12.3705 13.3131 13.8516 11.832 13.8516 10.0221V3.43998C13.8516 1.62942 12.3705 0.148926 10.5605 0.148926ZM7.26948 9.47347C5.7546 9.47347 4.52689 8.24524 4.52689 6.73103C4.52689 5.21615 5.7546 3.98843 7.26948 3.98843C8.78369 3.98843 10.0121 5.21615 10.0121 6.73103C10.0121 8.24524 8.78369 9.47347 7.26948 9.47347ZM10.8348 3.98843C10.38 3.98843 10.0121 3.61999 10.0121 3.16567C10.0121 2.71135 10.38 2.34291 10.8348 2.34291C11.2897 2.34291 11.6576 2.71135 11.6576 3.16567C11.6576 3.61999 11.2897 3.98843 10.8348 3.98843Z" fill="currentColor"></path></svg>