<svg width="143" height="37" viewBox="0 0 143 37" fill="none" xmlns="http://www.w3.org/2000/svg">
<path fillRule="evenodd" clipRule="evenodd" d="M18.5 37C28.7173 37 37 28.7173 37 18.5C37 8.28273 28.7173 0 18.5 0C8.28273 0 0 8.28273 0 18.5C0 28.7173 8.28273 37 18.5 37ZM21.2553 33.0638C27.777 33.0638 33.0638 27.777 33.0638 21.2553C33.0638 14.7337 27.777 9.44681 21.2553 9.44681C14.7337 9.44681 9.44681 14.7337 9.44681 21.2553C9.44681 27.777 14.7337 33.0638 21.2553 33.0638Z" fill="url(#paint0_linear_6_12)"/>
<path d="M53.777 29.324C51.941 29.324 50.465 28.811 49.349 27.785C48.251 26.741 47.702 25.265 47.702 23.357H51.158C51.176 24.239 51.383 24.941 51.779 25.463C52.175 25.985 52.814 26.246 53.696 26.246C54.524 26.246 55.127 26.003 55.505 25.517C55.883 25.013 56.072 24.356 56.072 23.546V10.1H59.528V23.546C59.528 25.4 59.006 26.831 57.962 27.839C56.936 28.829 55.541 29.324 53.777 29.324ZM69.0111 29.324C67.7151 29.324 66.5451 29.027 65.5011 28.433C64.4751 27.839 63.6561 27.02 63.0441 25.976C62.4501 24.914 62.1531 23.69 62.1531 22.304C62.1531 20.918 62.4591 19.703 63.0711 18.659C63.6831 17.597 64.5021 16.769 65.5281 16.175C66.5721 15.581 67.7421 15.284 69.0381 15.284C70.3161 15.284 71.4681 15.581 72.4941 16.175C73.5381 16.769 74.3571 17.597 74.9511 18.659C75.5631 19.703 75.8691 20.918 75.8691 22.304C75.8691 23.69 75.5631 24.914 74.9511 25.976C74.3571 27.02 73.5381 27.839 72.4941 28.433C71.4501 29.027 70.2891 29.324 69.0111 29.324ZM69.0111 26.327C69.9111 26.327 70.6941 25.994 71.3601 25.328C72.0261 24.644 72.3591 23.636 72.3591 22.304C72.3591 20.972 72.0261 19.973 71.3601 19.307C70.6941 18.623 69.9201 18.281 69.0381 18.281C68.1201 18.281 67.3281 18.623 66.6621 19.307C66.0141 19.973 65.6901 20.972 65.6901 22.304C65.6901 23.636 66.0141 24.644 66.6621 25.328C67.3281 25.994 68.1111 26.327 69.0111 26.327ZM86.3571 29.324C85.3491 29.324 84.4671 29.135 83.7111 28.757C82.9551 28.379 82.3431 27.848 81.8751 27.164L81.4971 29H78.4191V9.56H81.8751V17.525C82.3071 16.931 82.8741 16.409 83.5761 15.959C84.2961 15.509 85.2231 15.284 86.3571 15.284C87.6171 15.284 88.7421 15.59 89.7321 16.202C90.7221 16.814 91.5051 17.651 92.0811 18.713C92.6571 19.775 92.9451 20.981 92.9451 22.331C92.9451 23.681 92.6571 24.887 92.0811 25.949C91.5051 26.993 90.7221 27.821 89.7321 28.433C88.7421 29.027 87.6171 29.324 86.3571 29.324ZM85.6281 26.3C86.7261 26.3 87.6351 25.931 88.3551 25.193C89.0751 24.455 89.4351 23.501 89.4351 22.331C89.4351 21.161 89.0751 20.198 88.3551 19.442C87.6351 18.686 86.7261 18.308 85.6281 18.308C84.5121 18.308 83.5941 18.686 82.8741 19.442C82.1721 20.18 81.8211 21.134 81.8211 22.304C81.8211 23.474 82.1721 24.437 82.8741 25.193C83.5941 25.931 84.5121 26.3 85.6281 26.3ZM95.4924 29V9.56H98.9484V17.66C99.3984 16.922 100.001 16.346 100.757 15.932C101.531 15.5 102.413 15.284 103.403 15.284C105.059 15.284 106.337 15.806 107.237 16.85C108.155 17.894 108.614 19.424 108.614 21.44V29H105.185V21.764C105.185 20.612 104.951 19.73 104.483 19.118C104.033 18.506 103.313 18.2 102.323 18.2C101.351 18.2 100.541 18.542 99.8934 19.226C99.2634 19.91 98.9484 20.864 98.9484 22.088V29H95.4924ZM113.242 13.529C112.612 13.529 112.09 13.34 111.676 12.962C111.28 12.584 111.082 12.107 111.082 11.531C111.082 10.955 111.28 10.487 111.676 10.127C112.09 9.749 112.612 9.56 113.242 9.56C113.872 9.56 114.385 9.749 114.781 10.127C115.195 10.487 115.402 10.955 115.402 11.531C115.402 12.107 115.195 12.584 114.781 12.962C114.385 13.34 113.872 13.529 113.242 13.529ZM111.514 29V15.608H114.97V29H111.514ZM118.037 29V15.608H121.115L121.439 18.119C121.925 17.255 122.582 16.571 123.41 16.067C124.256 15.545 125.246 15.284 126.38 15.284V18.929H125.408C124.652 18.929 123.977 19.046 123.383 19.28C122.789 19.514 122.321 19.919 121.979 20.495C121.655 21.071 121.493 21.872 121.493 22.898V29H118.037ZM134.472 29.324C133.122 29.324 131.925 29.036 130.881 28.46C129.837 27.884 129.018 27.074 128.424 26.03C127.83 24.986 127.533 23.78 127.533 22.412C127.533 21.026 127.821 19.793 128.397 18.713C128.991 17.633 129.801 16.796 130.827 16.202C131.871 15.59 133.095 15.284 134.499 15.284C135.813 15.284 136.974 15.572 137.982 16.148C138.99 16.724 139.773 17.516 140.331 18.524C140.907 19.514 141.195 20.621 141.195 21.845C141.195 22.043 141.186 22.25 141.168 22.466C141.168 22.682 141.159 22.907 141.141 23.141H130.962C131.034 24.185 131.394 25.004 132.042 25.598C132.708 26.192 133.509 26.489 134.445 26.489C135.147 26.489 135.732 26.336 136.2 26.03C136.686 25.706 137.046 25.292 137.28 24.788H140.79C140.538 25.634 140.115 26.408 139.521 27.11C138.945 27.794 138.225 28.334 137.361 28.73C136.515 29.126 135.552 29.324 134.472 29.324ZM134.499 18.092C133.653 18.092 132.906 18.335 132.258 18.821C131.61 19.289 131.196 20.009 131.016 20.981H137.685C137.631 20.099 137.307 19.397 136.713 18.875C136.119 18.353 135.381 18.092 134.499 18.092Z" fill="#000002"/>
<defs>
<linearGradient id="paint0_linear_6_12" x1="18.5" y1="0" x2="18.5" y2="37" gradientUnits="userSpaceOnUse">
<stop stop-color="#F5E033"/>
<stop offset="1" stop-color="#2ABE7F"/>
</linearGradient>
</defs>
</svg>
