<svg width="14" height="16" class="inline-block m-0" viewBox="0 0 14 16" fill="none" xmlns="http://www.w3.org/2000/svg"><path d="M7 0C3.62266 0 0.875 2.74766 0.875 6.125C0.875 7.20606 1.16062 8.26891 1.70097 9.19859C1.82694 9.41534 1.96775 9.62656 2.11956 9.82641L6.73387 16H7.26609L11.8804 9.82644C12.0322 9.62656 12.173 9.41537 12.299 9.19862C12.8394 8.26891 13.125 7.20606 13.125 6.125C13.125 2.74766 10.3773 0 7 0ZM7 8.15625C5.87997 8.15625 4.96875 7.24503 4.96875 6.125C4.96875 5.00497 5.87997 4.09375 7 4.09375C8.12003 4.09375 9.03125 5.00497 9.03125 6.125C9.03125 7.24503 8.12003 8.15625 7 8.15625Z" fill="#779793"></path></svg>