<svg width="32" height="32" viewBox="0 0 32 32" fill="none" xmlns="http://www.w3.org/2000/svg"><path d="M6.98448 0.511767C5.73255 -0.180194 4.26264 -0.164195 3.01871 0.521766L17.5979 13.971L22.4956 9.07328L6.98448 0.511767Z" fill="black"></path><path d="M1.56079 1.89771C1.20481 2.47967 1.00082 3.14563 1.00082 3.85159V28.1422C1.00082 28.8262 1.18681 29.4781 1.52279 30.0481L16.184 15.3869L1.56079 1.89771Z" fill="black"></path><path d="M28.9893 12.6572L24.3175 10.0793L19.0678 15.3271L25.5014 21.2607L28.9912 19.3348C30.2472 18.6389 30.9991 17.3909 30.9991 15.995C30.9971 14.5991 30.2472 13.3512 28.9893 12.6572Z" fill="black"></path><path d="M17.6539 16.7429L2.9527 31.4441C3.59066 31.8081 4.29062 32.0001 4.99458 32.0001C5.67454 32.0001 6.35851 31.8281 6.98447 31.4821L23.6575 22.2806L17.6539 16.7429Z" fill="black"></path></svg>