<svg width="67" height="67" viewBox="0 0 67 67" fill="none" xmlns="http://www.w3.org/2000/svg">
<g clipPath="url(#clip0_1_44)">
<path d="M55.1504 11.2C56.165 10.1123 56.9465 8.98572 57.547 7.89527C59.2589 4.78671 56.9857 0.981445 53.437 0.981445H33.5C18.0176 0.981445 5.42191 13.5772 5.42191 29.0595H61.5781C61.5781 22.2816 59.1639 16.0568 55.1504 11.2Z" fill="#FDF088"/>
<path d="M56.8453 34.68C60.024 34.68 62.6009 32.1031 62.6009 28.9244C62.6009 25.7457 60.024 23.1688 56.8453 23.1688C53.6666 23.1688 51.0897 25.7457 51.0897 28.9244C51.0897 32.1031 53.6666 34.68 56.8453 34.68Z" fill="#D9EBE9"/>
<path d="M55.3585 21.6486C54.2282 18.3151 51.08 16.0868 47.5601 16.0868H19.4396C15.9292 16.0868 12.7808 18.3009 11.6499 21.6241C10.8602 23.9449 10.4298 26.4319 10.4252 29.0188C10.4033 41.7153 20.7623 52.1121 33.4588 52.1342C46.2216 52.1566 56.5748 41.817 56.5748 29.0594C56.5748 26.4671 56.147 23.9745 55.3585 21.6486Z" fill="#D9EBE9"/>
<path d="M22.6672 49.4168C19.3313 43.64 17.422 36.9361 17.422 29.7859C17.422 24.9677 18.2905 20.3527 19.8766 16.0867H19.4396C15.9293 16.0867 12.7808 18.3007 11.6499 21.6239C11.4675 22.16 11.3051 22.7053 11.1619 23.2583C10.8348 23.2004 10.4986 23.1686 10.1548 23.1686C6.97611 23.1686 4.39923 25.7455 4.39923 28.9242C4.39923 32.1029 6.97611 34.6797 10.1548 34.6797C10.4775 34.6797 10.7937 34.6518 11.102 34.6008C12.6938 41.0016 16.9755 46.3679 22.6672 49.4168V49.4168Z" fill="#D9EBE9"/>
<path d="M33.8891 61.3487L44.4634 57.4689C45.704 57.0137 46.5285 55.8327 46.5285 54.5114V40.2103C46.5285 38.0203 44.349 36.4985 42.2931 37.2529L33.5 40.4793L24.7069 37.2529C22.6509 36.4985 20.4715 38.0204 20.4715 40.2103V54.5113C20.4715 55.8327 21.2962 57.0136 22.5366 57.4687L33.111 61.3486H33.8891V61.3487Z" fill="#EEEDFF"/>
<path d="M48.8277 44.4016V58.703C48.8277 60.0242 48.0029 61.206 46.7629 61.6603L36.1884 65.5412C35.3203 65.8589 34.4101 66.0186 33.5001 66.0186L28.4991 55.0632L33.5 45.1818C34.095 45.1818 34.6886 45.0777 35.2552 44.8708L44.5924 41.4442C46.6478 40.6911 48.8277 42.2124 48.8277 44.4016Z" fill="#79D5AE"/>
<path d="M33.5 45.1818V66.0186C32.59 66.0186 31.6799 65.859 30.8118 65.5412L20.2373 61.6603C18.9973 61.2059 18.1725 60.024 18.1725 58.703V44.4016C18.1725 42.2124 20.3523 40.6911 22.4077 41.4443L31.7449 44.8709C32.3114 45.0778 32.905 45.1818 33.5 45.1818Z" fill="#71DBBA"/>
<path d="M50.7049 51.4116C52.7409 51.4116 54.3914 53.0622 54.3914 55.0982V57.5097C54.3914 59.5457 52.7409 61.1962 50.7049 61.1962C48.0029 61.1962 45.8126 59.0059 45.8126 56.3039C45.8124 53.6019 48.0029 51.4116 50.7049 51.4116Z" fill="#D9EBE9"/>
<path d="M16.2951 51.4116C14.2591 51.4116 12.6086 53.0622 12.6086 55.0982V57.5097C12.6086 59.5457 14.2591 61.1962 16.2951 61.1962C18.9971 61.1962 21.1874 59.0059 21.1874 56.3039C21.1876 53.6019 18.9971 51.4116 16.2951 51.4116Z" fill="#D9EBE9"/>
<path d="M21.1394 28.6905V30.4261C21.1394 30.9681 21.5788 31.4076 22.1208 31.4076C22.6629 31.4076 23.1023 30.9681 23.1023 30.4261V28.6905C23.1023 28.1484 22.6629 27.7091 22.1208 27.7091C21.5788 27.7091 21.1394 28.1484 21.1394 28.6905Z" fill="black"/>
<path d="M30.1433 31.9882C30.1433 33.995 31.6491 35.6276 33.5 35.6276C35.3509 35.6276 36.8567 33.995 36.8567 31.9882C36.8567 29.9815 35.3509 28.3488 33.5 28.3488C31.6491 28.3488 30.1433 29.9815 30.1433 31.9882ZM34.8938 31.9882C34.8938 32.9126 34.2686 33.6648 33.5 33.6648C32.7315 33.6648 32.1062 32.9126 32.1062 31.9882C32.1062 31.0638 32.7315 30.3117 33.5 30.3117C34.2686 30.3117 34.8938 31.0638 34.8938 31.9882Z" fill="black"/>
<path d="M43.8977 28.6905V30.4261C43.8977 30.9681 44.3371 31.4076 44.8792 31.4076C45.4212 31.4076 45.8606 30.9681 45.8606 30.4261V28.6905C45.8606 28.1484 45.4212 27.7091 44.8792 27.7091C44.3371 27.7091 43.8977 28.1484 43.8977 28.6905Z" fill="black"/>
<path d="M10.3778 35.6566C11.5832 39.8454 13.9221 43.6798 17.1909 46.7049V50.4984C16.8988 50.4535 16.5996 50.4302 16.2951 50.4302C13.7211 50.4302 11.6271 52.5242 11.6271 55.0982V57.5097C11.6271 60.0837 13.7211 62.1777 16.2951 62.1777C17.0832 62.1777 17.835 62.0207 18.5222 61.7379C18.9194 62.1053 19.3842 62.393 19.899 62.5815L30.4744 66.4628C32.4283 67.178 34.5647 67.1807 36.5263 66.4626L47.1003 62.5818C47.6154 62.3931 48.0803 62.1055 48.4776 61.738C49.1649 62.0207 49.9167 62.1777 50.7047 62.1777C53.2787 62.1777 55.3727 60.0837 55.3727 57.5097V55.0982C55.3727 52.5242 53.2787 50.4302 50.7047 50.4302C50.4002 50.4302 50.1011 50.4535 49.809 50.4984V46.7368C51.2646 45.393 52.5538 43.8748 53.6412 42.2135C53.9381 41.76 53.8111 41.1517 53.3575 40.8548C52.904 40.558 52.2957 40.685 51.9988 41.1385C51.339 42.1467 50.5993 43.0983 49.7877 43.9841C49.6453 42.5839 48.7897 41.3328 47.5099 40.7004V40.2103C47.5099 37.333 44.641 35.3459 41.955 36.3315L33.5 39.4338L25.0449 36.3315C22.3385 35.3386 19.4901 37.3546 19.4901 40.2103V40.7004C18.1526 41.3771 17.3623 42.6191 17.2157 43.9511C13.475 39.8621 11.3971 34.5258 11.4066 29.0204C11.4096 27.1973 11.6378 25.3342 12.112 23.5046C12.2446 22.9924 12.4056 22.4498 12.579 21.9403C13.5706 19.0262 16.3277 17.0683 19.4396 17.0683H47.5601C50.6559 17.0683 53.4297 19.0167 54.429 21.9638C55.1949 24.2223 55.5934 26.6335 55.5934 29.0595C55.5934 30.8053 55.3887 32.5887 54.9502 34.3668C54.9498 34.3686 54.9496 34.3706 54.9492 34.3724C54.6558 35.5583 54.2641 36.7207 53.7719 37.8533C53.5559 38.3504 53.7837 38.9286 54.2809 39.1446C54.778 39.3607 55.3561 39.1328 55.5722 38.6357C55.9954 37.6619 56.3507 36.6677 56.6391 35.6571C60.4545 35.7739 63.5821 32.7001 63.5821 28.9244C63.5821 27.4298 63.0923 26.048 62.2656 24.9292C61.5519 19.9373 59.5442 15.224 56.4343 11.2322C57.1863 10.3435 57.8478 9.3834 58.4066 8.36885C60.474 4.61476 57.7435 0 53.4369 0H33.5C27 0 20.8494 2.10762 15.7133 6.09504C15.2852 6.42742 15.2076 7.04403 15.5399 7.47207C15.8725 7.90011 16.4888 7.97797 16.9171 7.64546C21.7056 3.92787 27.4399 1.96289 33.5 1.96289H53.4368C56.2437 1.96289 58.0372 4.97056 56.6871 7.42182C56.0701 8.54211 55.3115 9.5882 54.4325 10.5305C54.0962 10.891 54.0796 11.4451 54.3937 11.8251C57.0738 15.0685 58.9494 18.8615 59.8933 22.9136C58.8989 22.4089 57.7524 22.1478 56.5607 22.1934C56.4758 21.908 56.3924 21.6431 56.293 21.3489C56.2912 21.3437 56.2896 21.3385 56.2879 21.3333C55.0243 17.6063 51.5154 15.1052 47.5599 15.1052H19.4396C15.4871 15.1052 11.9833 17.5978 10.7208 21.3077C10.6247 21.5901 10.5305 21.8856 10.4389 22.1934C9.23318 22.1498 8.0769 22.4203 7.1058 22.914C8.21365 18.1268 10.5984 13.7635 14.0883 10.1764C14.4662 9.78789 14.4577 9.16657 14.0692 8.78865C13.6807 8.41059 13.0594 8.41923 12.6813 8.80775C8.35066 13.2591 5.60798 18.8275 4.73659 24.9257C3.90838 26.0449 3.41753 27.4283 3.41753 28.9244C3.41779 32.7334 6.58812 35.7865 10.3778 35.6566V35.6566ZM13.59 57.5096V55.0981C13.59 53.6065 14.8036 52.393 16.2951 52.393C18.4509 52.393 20.206 54.1471 20.206 56.3038C20.206 57.2966 19.8168 58.3003 19.0722 59.0544C18.3847 59.7503 17.4006 60.2147 16.2951 60.2147C14.8036 60.2147 13.59 59.0011 13.59 57.5096ZM20.2877 60.609C21.4386 59.5376 22.169 58.005 22.169 56.3038C22.169 54.1724 21.0114 52.2023 19.1539 51.1715V46.2731V44.4015C19.1539 43.4088 19.8134 42.5751 20.7392 42.3125C21.1792 42.1878 21.6435 42.2091 22.0698 42.3656L31.4068 45.792C31.4073 45.7921 31.4078 45.7924 31.4083 45.7925C31.7793 45.928 32.1889 46.0299 32.5186 46.0836V64.9661C32.0533 64.8984 31.5956 64.7827 31.1499 64.6197C20.0117 60.5235 20.5492 60.7508 20.2877 60.609V60.609ZM53.41 55.0981V57.5096C53.41 59.0012 52.1965 60.2147 50.7049 60.2147C48.5114 60.2147 46.794 58.4175 46.794 56.3038C46.794 54.1497 48.5465 52.393 50.7049 52.393C52.1964 52.393 53.41 53.6064 53.41 55.0981ZM44.831 56.3037C44.831 56.3038 44.831 56.3038 44.831 56.3037C44.831 57.9734 45.5375 59.5145 46.7123 60.609C46.6202 60.6588 46.5242 60.7023 46.4246 60.7388L35.8509 64.6194C35.4048 64.7827 34.9468 64.8985 34.4814 64.9662V46.0837C34.814 46.0299 35.2177 45.9293 35.5934 45.7921L44.93 42.3657C46.3326 41.8521 47.8461 42.8814 47.8461 44.4016V46.3062V51.1716C45.9879 52.2046 44.831 54.1737 44.831 56.3037V56.3037ZM21.4882 39.8145C21.7168 38.5454 23.0615 37.6944 24.3689 38.174L33.162 41.4004C33.3803 41.4805 33.6199 41.4805 33.8381 41.4004L42.6312 38.174C44.0427 37.656 45.5472 38.6949 45.5472 40.2102V40.27C45.1558 40.2827 44.6704 40.3704 44.2544 40.5228L34.9188 43.949C34.0083 44.2814 33.0021 44.2819 32.0938 43.9532C32.0901 43.9519 32.0865 43.9508 32.0829 43.9495L22.7458 40.523C22.7457 40.523 22.7456 40.523 22.7455 40.5228C22.7449 40.5227 22.7444 40.5226 22.7439 40.5223C22.3308 40.3709 21.8449 40.2828 21.4532 40.2701C21.4531 40.27 21.445 40.0537 21.4882 39.8145ZM57.1096 33.6912C57.41 32.1531 57.5563 30.6013 57.5563 29.0595C57.5563 27.409 57.3818 25.7297 57.0557 24.1561C59.5763 24.2634 61.6193 26.353 61.6193 28.9244C61.6193 31.468 59.6197 33.5535 57.1096 33.6912V33.6912ZM9.9444 24.156C9.60717 25.7834 9.44648 27.4518 9.44386 29.0169C9.44111 30.6329 9.61254 32.2541 9.89559 33.6913C7.38309 33.5563 5.38068 31.4697 5.38068 28.9241C5.38068 26.3767 7.3984 24.2633 9.9444 24.156Z" fill="black"/>
</g>
<defs>
<clipPath id="clip0_1_44">
<rect width="67" height="67" fill="white"/>
</clipPath>
</defs>
</svg>
