<svg width="1em" height="1em" viewBox="0 0 21 21" class="w-5 h-5 "><path fill-rule="evenodd" clip-rule="evenodd" d="M9 16.8C13.3078 16.8 16.8 13.3078 16.8 9C16.8 4.69218 13.3078 1.2 9 1.2C4.69218 1.2 1.2 4.69218 1.2 9C1.2 13.3078 4.69218 16.8 9 16.8ZM9 18C13.9706 18 18 13.9706 18 9C18 4.02944 13.9706 0 9 0C4.02944 0 0 4.02944 0 9C0 13.9706 4.02944 18 9 18Z" fill="currentColor"></path><path fill-rule="evenodd" clip-rule="evenodd" d="M15.0605 14.5917C15.2861 14.3489 15.6657 14.335 15.9085 14.5606L20.7926 19.0996C21.0353 19.3252 21.0492 19.7048 20.8236 19.9475C20.598 20.1903 20.2184 20.2042 19.9756 19.9786L15.0916 15.4396C14.8488 15.2141 14.8349 14.8344 15.0605 14.5917Z" fill="currentColor"></path></svg>