<svg width="67" height="67" viewBox="0 0 67 67" fill="none" xmlns="http://www.w3.org/2000/svg">
<path d="M24.9442 63.9025C25.7871 64.4 26.748 64.6625 27.7267 64.6625H43.6335H48.908C50.9025 64.6625 52.5628 63.0486 52.5275 61.0544C52.5043 59.7439 51.7691 58.6079 50.6927 58.0144C50.6131 57.9706 50.5619 57.889 50.5619 57.7983V57.7915C50.5619 57.678 50.6399 57.5787 50.7507 57.5544C52.3407 57.205 53.5308 55.7886 53.5308 54.0936C53.5308 53.0561 53.0849 52.123 52.3745 51.4748C53.8023 50.9238 54.8159 49.5393 54.8159 47.9171C54.8159 46.6386 54.186 45.5079 53.2202 44.8162C54.567 44.1428 55.4924 42.7515 55.4924 41.1433C55.4924 38.8762 53.6546 37.0384 51.3875 37.0384H42.922C42.3228 37.0384 41.9245 36.4184 42.1733 35.8734L43.1781 33.6736C43.761 32.3975 44.0628 31.0107 44.0628 29.6076V25.0333C44.0628 24.3739 43.9337 23.7208 43.683 23.111C43.0338 21.5318 41.4953 20.501 39.788 20.501H39.7793C38.6175 20.501 37.5681 21.1945 37.1125 22.2632L35.3453 26.4095L28.6907 30.284L27.5998 30.7476C26.0999 31.385 24.8855 32.5498 24.1863 34.0218L16.3266 50.2194V59.1048L24.9442 63.9025Z" fill="#D9EBE9"/>
<path d="M6.50715 66.0176H19.7648C21.3869 66.0176 22.7017 64.7027 22.7017 63.0807V36.1133C22.7017 34.4912 21.3868 33.1764 19.7648 33.1764H6.50715C5.52333 33.1764 4.72577 33.974 4.72577 34.9578V64.2361C4.72564 65.22 5.5232 66.0176 6.50715 66.0176V66.0176Z" fill="#79D5AE"/>
<path d="M42.9513 15.1848L39.8842 13.5908C39.5889 13.4372 39.237 13.4389 38.9431 13.5952L35.8912 15.2181C35.1511 15.6116 34.2811 14.9857 34.4189 14.159L34.9873 10.7493C35.042 10.4211 34.9316 10.0868 34.6923 9.85562L32.2057 7.45455C31.6028 6.87233 31.9292 5.85157 32.758 5.72714L36.1763 5.21394C36.5055 5.16456 36.7892 4.95629 36.9351 4.65713L38.4503 1.55032C38.8178 0.79703 39.8895 0.791922 40.2639 1.5418L41.8082 4.63421C41.9569 4.93193 42.2426 5.13745 42.5723 5.18381L45.9953 5.66479C46.8253 5.78136 47.1613 6.79911 46.5639 7.38696L44.1001 9.81135C43.8629 10.0448 43.7557 10.3799 43.8135 10.7078L44.4138 14.1119C44.559 14.9373 43.6949 15.5712 42.9513 15.1848V15.1848Z" fill="#FDF088"/>
<path d="M25.1517 20.4965L22.7033 19.224C22.4675 19.1015 22.1866 19.1028 21.9521 19.2275L19.5158 20.5231C18.9251 20.8372 18.2306 20.3376 18.3406 19.6777L18.7942 16.956C18.8379 16.6939 18.7498 16.4272 18.5587 16.2427L16.5738 14.326C16.0926 13.8612 16.3531 13.0464 17.0147 12.947L19.7433 12.5374C20.0061 12.498 20.2326 12.3317 20.349 12.093L21.5585 9.61291C21.8518 9.01156 22.7072 9.0075 23.0063 9.6061L24.2391 12.0746C24.3578 12.3124 24.5858 12.4764 24.849 12.5133L27.5814 12.8972C28.2439 12.9903 28.5122 13.8027 28.0353 14.272L26.0684 16.2073C25.879 16.3937 25.7935 16.6613 25.8396 16.9229L26.3189 19.6403C26.4351 20.2988 25.7453 20.805 25.1517 20.4965V20.4965Z" fill="#FDF088"/>
<path d="M53.4485 20.4965L55.8969 19.224C56.1327 19.1015 56.4136 19.1028 56.6481 19.2275L59.0844 20.5231C59.6751 20.8372 60.3696 20.3376 60.2596 19.6777L59.806 16.956C59.7623 16.6939 59.8504 16.4272 60.0415 16.2427L62.0264 14.326C62.5076 13.8612 62.2471 13.0464 61.5855 12.947L58.8569 12.5374C58.5941 12.498 58.3676 12.3317 58.2512 12.093L57.0417 9.61291C56.7484 9.01156 55.893 9.0075 55.5939 9.6061L54.3611 12.0746C54.2424 12.3124 54.0144 12.4764 53.7512 12.5133L51.0188 12.8972C50.3563 12.9903 50.088 13.8027 50.5649 14.272L52.5318 16.2073C52.7212 16.3937 52.8067 16.6613 52.7606 16.9229L52.2813 19.6403C52.1651 20.2988 52.8549 20.805 53.4485 20.4965V20.4965Z" fill="#FDF088"/>
<path d="M56.4745 41.1434C56.4745 38.3382 54.1924 36.0561 51.3872 36.0561H50.323C49.7805 36.0561 49.3406 36.4959 49.3406 37.0385C49.3406 37.581 49.7805 38.0209 50.323 38.0209H51.3872C53.109 38.0209 54.5098 39.4216 54.5098 41.1434C54.5098 42.3336 53.8472 43.4044 52.7806 43.9377C52.4727 44.0916 52.2677 44.3956 52.2406 44.7389C52.2134 45.0821 52.3679 45.4145 52.6478 45.615C53.3901 46.1466 53.8331 47.0073 53.8331 47.9173C53.8331 49.0788 53.1047 50.1401 52.0205 50.5584C51.7029 50.681 51.4715 50.9591 51.4086 51.2936C51.3458 51.6281 51.4606 51.9713 51.7121 52.2007C52.2433 52.6853 52.5481 53.3753 52.5481 54.0936C52.5481 55.2873 51.7034 56.3392 50.5398 56.5949C49.9832 56.717 49.5793 57.2202 49.5793 57.7984C49.5793 58.245 49.8239 58.6574 50.2179 58.8747C51.0202 59.317 51.5287 60.1589 51.5448 61.0717C51.5569 61.7468 51.2975 62.3892 50.8146 62.8807C50.3155 63.3887 49.6205 63.68 48.9076 63.68H27.7267C26.9241 63.68 26.1347 63.4644 25.4435 63.0563L23.6841 62.0179V57.072C23.6841 56.5294 23.2443 56.0896 22.7018 56.0896C22.1592 56.0896 21.7194 56.5294 21.7194 57.072V63.0804C21.7194 64.1582 20.8426 65.035 19.7648 65.035H4.72577C4.18324 65.035 3.74339 65.4748 3.74339 66.0174C3.74339 66.5599 4.18324 66.9998 4.72577 66.9998H19.7648C21.5361 66.9998 23.036 65.8183 23.5197 64.2022L24.4449 64.7481C25.4383 65.3346 26.5731 65.6445 27.7267 65.6445H48.9078C50.1445 65.6445 51.3503 65.1389 52.2164 64.2573C53.0717 63.3868 53.5309 62.2429 53.5096 61.0366C53.4893 59.8928 53.0325 58.8123 52.2642 58.0021C53.6204 57.205 54.513 55.724 54.513 54.0934C54.513 53.2656 54.2842 52.4592 53.8647 51.7609C55.0553 50.8683 55.798 49.4437 55.798 47.917C55.798 46.8304 55.4257 45.7857 54.7665 44.9486C55.8423 43.9984 56.4745 42.6281 56.4745 41.1434V41.1434Z" fill="black"/>
<path d="M34.0096 10.5623C34.0165 10.569 34.0197 10.5785 34.0181 10.5878L33.4498 13.9975C33.3242 14.7514 33.6316 15.4972 34.2521 15.9435C34.6001 16.1939 35.0059 16.3209 35.4145 16.3209C35.7344 16.3209 36.0558 16.2429 36.3523 16.0854L39.4044 14.4623C39.4127 14.458 39.4226 14.4577 39.431 14.4623L42.4982 16.0564C43.1764 16.4088 43.9805 16.3471 44.5969 15.8948C45.2132 15.4425 45.5135 14.694 45.3808 13.9411L44.7804 10.5371C44.7788 10.5278 44.7819 10.5181 44.7887 10.5116L47.2525 8.08721C47.7974 7.5511 47.9869 6.76703 47.7473 6.04111C47.5078 5.3152 46.8886 4.79821 46.1316 4.69185L42.7086 4.21087C42.6992 4.20956 42.6911 4.20367 42.6869 4.19515L41.1426 1.10289C40.8024 0.421899 40.1199 0 39.3594 0C39.3561 0 39.3528 0 39.3497 0C38.5853 0.00353657 37.9023 0.43264 37.5673 1.11965L36.052 4.22646C36.0478 4.23497 36.0399 4.24087 36.0304 4.24231L32.612 4.75537C31.8561 4.86894 31.2419 5.39169 31.0091 6.11983C30.7764 6.84797 30.9734 7.63008 31.5233 8.16096L34.0096 10.5623ZM32.8893 6.70219C32.8893 6.70219 32.8931 6.70009 32.9036 6.69852L36.3221 6.18546C36.971 6.08787 37.5302 5.67763 37.8178 5.08781L39.3331 1.98087C39.3376 1.97144 39.3408 1.96843 39.3408 1.96843C39.3479 1.96345 39.37 1.96345 39.3768 1.96817C39.3768 1.96817 39.3799 1.97118 39.3848 1.98074L40.9292 5.07314C41.2224 5.66034 41.7855 6.06534 42.4354 6.15664L45.8584 6.63761C45.8688 6.63905 45.8726 6.64102 45.8727 6.64102C45.8795 6.64626 45.8863 6.66722 45.8841 6.67534C45.8841 6.67534 45.8823 6.67927 45.8747 6.68673L43.4108 9.11098C42.943 9.57126 42.7317 10.2321 42.8457 10.8784L43.446 14.2824C43.4478 14.2928 43.4471 14.297 43.4471 14.297C43.4442 14.3052 43.4266 14.3183 43.4181 14.3185C43.4181 14.3185 43.4137 14.318 43.4043 14.313L40.3372 12.7189C39.7548 12.4162 39.0611 12.4195 38.4818 12.7277L35.4297 14.3506C35.4206 14.3556 35.4162 14.3562 35.4161 14.3562C35.4075 14.3561 35.3895 14.3431 35.3866 14.3351C35.3866 14.3351 35.3858 14.331 35.3876 14.3203L35.9559 10.9107C36.0637 10.2634 35.8463 9.60479 35.3742 9.14884L32.8877 6.74777C32.8801 6.74044 32.8782 6.73664 32.8782 6.73664C32.8759 6.72852 32.8826 6.70743 32.8893 6.70219Z" fill="black"/>
<path d="M17.81 16.8852L17.3716 19.516C17.2588 20.1928 17.5348 20.8622 18.0919 21.2629C18.4043 21.4877 18.7687 21.6016 19.1353 21.6016C19.4224 21.6016 19.7111 21.5317 19.977 21.3902L22.332 20.138L24.6985 21.3679C25.3073 21.6843 26.0293 21.6287 26.5824 21.2229C27.1357 20.8169 27.4054 20.145 27.2862 19.4692L26.8229 16.8426L28.724 14.9719C29.2131 14.4906 29.3834 13.7869 29.1682 13.1352C28.953 12.4836 28.3973 12.0196 27.7178 11.9241L25.0765 11.5531L23.8848 9.1668C23.5795 8.55549 22.9667 8.17682 22.2839 8.17682C22.2812 8.17682 22.2781 8.17682 22.2753 8.17682C21.5892 8.17996 20.976 8.56506 20.6752 9.18186L19.506 11.5793L16.8684 11.9752C16.1897 12.0771 15.6383 12.5464 15.4294 13.2001C15.2205 13.8537 15.3973 14.5557 15.8908 15.0323L17.81 16.8852ZM19.8893 13.5087C20.4717 13.4212 20.9737 13.0528 21.232 12.5234L22.2859 10.3623L23.3601 12.5133C23.6232 13.0404 24.1287 13.404 24.7122 13.486L27.0931 13.8205L25.3794 15.5068C24.9595 15.9199 24.7699 16.513 24.8721 17.0933L25.2897 19.4611L23.1561 18.3522C22.6335 18.0805 22.0108 18.0837 21.4908 18.3602L19.3678 19.489L19.7631 17.1174C19.8599 16.5362 19.6647 15.945 19.241 15.5359L17.5114 13.8657L19.8893 13.5087Z" fill="black"/>
<path d="M63.1703 13.2002C62.9614 12.5466 62.4099 12.0773 61.7313 11.9753L59.0937 11.5794L57.9245 9.18198C57.6238 8.56531 57.0105 8.18022 56.3244 8.17694C55.6421 8.17786 55.0215 8.55313 54.7149 9.16705L53.5232 11.5532L50.882 11.9243C50.2025 12.0198 49.6467 12.4837 49.4317 13.1353C49.2166 13.787 49.3867 14.4908 49.8758 14.972L51.7769 16.8427L51.3136 19.4693C51.1944 20.1451 51.4641 20.8172 52.0174 21.2231C52.5707 21.629 53.2925 21.6845 53.9013 21.3681L56.2678 20.1381L58.6228 21.3903C58.889 21.5319 59.1774 21.6019 59.4646 21.6019C59.8313 21.6019 60.1958 21.4878 60.508 21.2632C61.0651 20.8625 61.3411 20.193 61.2283 19.5162L60.7899 16.8853L62.7086 15.0325C63.2024 14.5557 63.3793 13.8538 63.1703 13.2002V13.2002ZM59.3592 15.5358C58.9355 15.9449 58.7402 16.5362 58.8371 17.1174L59.2324 19.489L57.1095 18.3602C56.8469 18.2205 56.5582 18.1506 56.2693 18.1506C55.9861 18.1506 55.7028 18.2178 55.4439 18.3523L53.3105 19.4611L53.7281 17.0932C53.8304 16.5129 53.6407 15.9199 53.2208 15.5069L51.507 13.8205L53.8879 13.486C54.4714 13.404 54.9767 13.0404 55.24 12.5133L56.3142 10.3623L57.3681 12.5235C57.6264 13.053 58.1283 13.4213 58.7108 13.5088L61.0886 13.8657L59.3592 15.5358Z" fill="black"/>
<path d="M4.72577 34.1588H8.91752C9.46005 34.1588 9.8999 33.719 9.8999 33.1764C9.8999 32.6339 9.46005 32.194 8.91752 32.194H4.72577C4.18324 32.194 3.74339 32.6339 3.74339 33.1764C3.74339 33.719 4.18311 34.1588 4.72577 34.1588Z" fill="black"/>
<path d="M13.104 34.1588H19.7648C20.8426 34.1588 21.7194 35.0356 21.7194 36.1133V52.8854C21.7194 53.428 22.1592 53.8678 22.7017 53.8678C23.2443 53.8678 23.6841 53.428 23.6841 52.8854V37.3677L25.0733 34.4433C25.6701 33.187 26.7037 32.1956 27.9837 31.6516L29.0746 31.1881C29.1125 31.1719 29.1492 31.1535 29.1848 31.1329L35.8393 27.2584C36.0222 27.1519 36.1657 26.9892 36.2486 26.7946L38.0159 22.6483C38.3175 21.9406 39.0095 21.4832 39.7875 21.4832C41.102 21.4832 42.2743 22.2687 42.774 23.4844C42.977 23.978 43.08 24.4991 43.08 25.033V29.6075C43.08 30.8785 42.8122 32.1091 42.2841 33.2652L41.2793 35.4649C41.0229 36.0265 41.069 36.6718 41.4027 37.1912C41.7365 37.7105 42.3043 38.0206 42.9216 38.0206H46.1362C46.6787 38.0206 47.1186 37.5807 47.1186 37.0382C47.1186 36.4957 46.6787 36.0558 46.1362 36.0558H43.1694L44.0711 34.0816C44.7171 32.6675 45.0446 31.1621 45.0446 29.6075V25.033C45.0446 24.2415 44.892 23.469 44.591 22.7372C43.7871 20.7819 41.9016 19.5184 39.7788 19.5184C38.2206 19.5184 36.8192 20.4446 36.2083 21.8778L34.5688 25.7243L28.2492 29.4038L27.2149 29.8432C25.4924 30.5753 24.1014 31.9095 23.2984 33.6L23.0889 34.0408C22.3958 32.9328 21.165 32.1938 19.7644 32.1938H13.1036C12.5611 32.1938 12.1212 32.6336 12.1212 33.1761C12.1212 33.7187 12.5615 34.1588 13.104 34.1588V34.1588Z" fill="black"/>
</svg>
