<svg width="16" height="16" viewBox="0 0 21 21" fill="none" xmlns="http://www.w3.org/2000/svg"><path d="M18.3183 5.07024C17.7165 5.33101 17.0947 5.51155 16.4327 5.59179C17.1147 5.19059 17.6363 4.54868 17.877 3.76635C17.2351 4.14749 16.533 4.40826 15.7908 4.56874C15.189 3.92683 14.3264 3.52563 13.3836 3.52563C11.5582 3.52563 10.0938 5.01006 10.0938 6.81543C10.0938 7.07621 10.1139 7.31693 10.1741 7.55764C7.44593 7.43729 5.03876 6.11334 3.41391 4.12743C2.25045 6.21364 3.55433 7.93878 4.4169 8.52051C3.89535 8.52051 3.37379 8.36003 2.93248 8.11932C2.93248 9.74416 4.07589 11.0882 5.56031 11.3891C5.23935 11.4894 4.5172 11.5495 4.07589 11.4492C4.49714 12.7531 5.72079 13.716 7.14503 13.736C6.02168 14.6187 4.37678 15.3208 2.27051 15.1001C3.73487 16.0429 5.46001 16.5845 7.32557 16.5845C13.3836 16.5845 16.6734 11.5696 16.6734 7.23669C16.6734 7.09627 16.6734 6.95585 16.6534 6.81543C17.3354 6.31394 17.8971 5.73221 18.3183 5.07024Z" fill="currentColor"></path></svg>