<svg width="59" height="67" viewBox="0 0 59 67" fill="none" xmlns="http://www.w3.org/2000/svg">
<path d="M40.7812 37.625H18.2812C16.7894 37.625 15.3587 38.211 14.3038 39.2542C13.2489 40.2974 12.6563 41.7122 12.6562 43.1875V68.2188H46.4062V43.1875C46.4062 41.7122 45.8136 40.2974 44.7587 39.2542C43.7038 38.211 42.2731 37.625 40.7812 37.625Z" fill="#79D5AE"/>
<path d="M46.4062 66.8281C52.6195 66.8281 57.6562 61.8473 57.6562 55.7031C57.6562 49.559 52.6195 44.5781 46.4062 44.5781C40.193 44.5781 35.1562 49.559 35.1562 55.7031C35.1562 61.8473 40.193 66.8281 46.4062 66.8281Z" fill="#FDF088"/>
<path d="M29.5312 36.2344C34.9678 36.2344 39.375 31.8761 39.375 26.5C39.375 21.1239 34.9678 16.7656 29.5312 16.7656C24.0947 16.7656 19.6875 21.1239 19.6875 26.5C19.6875 31.8761 24.0947 36.2344 29.5312 36.2344Z" fill="#D9EBE9"/>
<path d="M44.4375 41.1016L46.8731 39.7109C46.2538 38.6553 45.3654 37.7786 44.2964 37.1686C43.2275 36.5586 42.0154 36.2365 40.7812 36.2344H34.965C37.1499 35.0425 38.8722 33.1662 39.8608 30.9005C40.8493 28.6348 41.0481 26.1084 40.4258 23.7188C39.8035 21.3291 38.3955 19.2119 36.4233 17.7002C34.4511 16.1885 32.0266 15.3681 29.5312 15.3681C27.0359 15.3681 24.6114 16.1885 22.6392 17.7002C20.667 19.2119 19.259 21.3291 18.6367 23.7188C18.0144 26.1084 18.2132 28.6348 19.2017 30.9005C20.1903 33.1662 21.9126 35.0425 24.0975 36.2344H18.2812C16.4171 36.2366 14.63 36.9699 13.3119 38.2733C11.9937 39.5768 11.2522 41.3441 11.25 43.1875V68.2188H14.0625V43.1875C14.0625 42.0811 14.507 41.0199 15.2981 40.2375C16.0893 39.4552 17.1624 39.0156 18.2812 39.0156H40.7812C41.5219 39.0168 42.2493 39.2101 42.8909 39.5761C43.5324 39.9421 44.0657 40.4681 44.4375 41.1016V41.1016ZM21.0938 26.5C21.0938 24.8498 21.5886 23.2366 22.5157 21.8645C23.4429 20.4923 24.7606 19.4229 26.3024 18.7914C27.8441 18.1599 29.5406 17.9946 31.1773 18.3166C32.814 18.6385 34.3175 19.4332 35.4975 20.6001C36.6775 21.767 37.4811 23.2537 37.8066 24.8722C38.1322 26.4907 37.9651 28.1684 37.3265 29.693C36.6879 31.2176 35.6064 32.5208 34.2189 33.4376C32.8313 34.3544 31.2 34.8438 29.5312 34.8438C27.2942 34.8415 25.1494 33.9618 23.5675 32.3975C21.9856 30.8332 21.096 28.7122 21.0938 26.5Z" fill="black"/>
<path d="M18.2812 45.9688H21.0938V68.2188H18.2812V45.9688Z" fill="black"/>
<path d="M49.4564 50.8526L44.8158 58.2911L42.4125 56.5166L40.725 58.7416L44.3602 61.4241C44.6036 61.6047 44.8996 61.7023 45.2039 61.7023C45.2921 61.7027 45.3802 61.6948 45.4669 61.6786C45.6595 61.6435 45.8425 61.5689 46.0043 61.4597C46.1661 61.3505 46.303 61.2091 46.4063 61.0445L51.8555 52.3142L49.4564 50.8526Z" fill="black"/>
<path d="M59.0625 55.7031C59.0625 53.2278 58.3202 50.808 56.9295 48.7498C55.5389 46.6916 53.5622 45.0875 51.2496 44.1402C48.937 43.1929 46.3922 42.9451 43.9371 43.428C41.4821 43.9109 39.2269 45.1029 37.4569 46.8532C35.6869 48.6036 34.4815 50.8337 33.9932 53.2615C33.5048 55.6892 33.7555 58.2057 34.7134 60.4927C35.6713 62.7796 37.2935 64.7343 39.3748 66.1095C41.4561 67.4847 43.9031 68.2188 46.4063 68.2188C49.7616 68.2147 52.9784 66.8948 55.351 64.5485C57.7237 62.2023 59.0584 59.0212 59.0625 55.7031V55.7031ZM36.5625 55.7031C36.5625 53.7779 37.1398 51.8958 38.2215 50.295C39.3031 48.6942 40.8405 47.4465 42.6392 46.7097C44.4379 45.973 46.4172 45.7802 48.3267 46.1558C50.2362 46.5314 51.9902 47.4585 53.3668 48.8199C54.7435 50.1813 55.681 51.9158 56.0609 53.8041C56.4407 55.6923 56.2457 57.6496 55.5007 59.4283C54.7556 61.207 53.4939 62.7273 51.8751 63.797C50.2564 64.8666 48.3532 65.4375 46.4063 65.4375C43.7964 65.4346 41.2944 64.408 39.449 62.5831C37.6035 60.7582 36.5655 58.2839 36.5625 55.7031V55.7031Z" fill="black"/>
<path d="M50.625 29.2812H56.25V32.0625H50.625V29.2812Z" fill="black"/>
<path d="M2.8125 29.2812H8.4375V32.0625H2.8125V29.2812Z" fill="black"/>
<path d="M28.125 1.46875H30.9375V7.03125H28.125V1.46875Z" fill="black"/>
<path d="M45.4331 12.9733L49.4106 9.03999L51.3993 11.0066L47.4219 14.9399L45.4331 12.9733Z" fill="black"/>
<path d="M7.65131 11.0029L9.64004 9.03623L13.6175 12.9695L11.6288 14.9362L7.65131 11.0029Z" fill="black"/>
</svg>
