<svg width="76" height="76" fill="none" xmlns="http://www.w3.org/2000/svg"><path d="M74.25 49.248H1.75v7.5c0 1.385 1.115 2.5 2.5 2.5h67.5c1.385 0 2.5-1.115 2.5-2.5v-7.5z" fill="#FDF088"></path><path d="M4.25 9.248a2.495 2.495 0 00-2.5 2.5v37.5h72.5v-37.5c0-1.385-1.115-2.5-2.5-2.5H4.25z" fill="#D9EBE9"></path><path d="M26.75 69.248c6.25-5 5-10 5-10h12.5s-1.25 5 5 10h-22.5zM24.25 69.248h27.5c1.385 0 2.5 1.115 2.5 2.5v2.5h-32.5v-2.5c0-1.385 1.115-2.5 2.5-2.5z" fill="#FDF088"></path><path d="M64.25 11.748h-52.5v37.5h52.5v-37.5z" fill="#79D5AE"></path><path d="M14.25 1.748a2.494 2.494 0 00-2.5 2.5v7.5h52.5v-7.5c0-1.385-1.115-2.5-2.5-2.5h-47.5z" fill="#79D5AE"></path><path d="M14.248.498A3.765 3.765 0 0010.5 4.246v40c0 1.668 2.502 1.668 2.502 0V13.003h49.993v31.243c-.038 1.704 2.538 1.704 2.5 0v-40c0-2.056-1.69-3.748-3.745-3.748H14.248zm0 2.503H61.75c.714 0 1.245.53 1.245 1.245V10.5H13.002V4.246c0-.714.531-1.245 1.246-1.245zm2.502 2.497a1.25 1.25 0 100 2.5 1.25 1.25 0 000-2.5zm5 0a1.25 1.25 0 100 2.5 1.25 1.25 0 000-2.5zm5 0a1.25 1.25 0 100 2.5 1.25 1.25 0 000-2.5zm17.437.003c-1.688.115-1.573 2.541.058 2.5H59.25c1.63-.038 1.63-2.464 0-2.5H44.187zM4.255 8C2.199 8 .5 9.69.5 11.746v45.002c0 2.056 1.699 3.748 3.755 3.748h67.498a3.765 3.765 0 003.747-3.748V11.746C75.5 9.69 73.808 8 71.752 8h-2.5c-1.704-.038-1.704 2.538 0 2.5h2.5c.715 0 1.246.53 1.246 1.245V48H3V11.746c0-.714.54-1.245 1.255-1.245h2.49c1.704.038 1.704-2.538 0-2.5h-2.49zm37.51 9.978a1.25 1.25 0 00-1.202.876l-7.502 22.498c-.529 1.582 1.844 2.375 2.373.793l7.503-22.505a1.25 1.25 0 00-1.172-1.662zm5.434 7.226l6.348 5.296-6.348 5.288c-1.356 1.062.319 3.065 1.604 1.919l7.493-6.248a1.25 1.25 0 000-1.919l-7.493-6.257c-.224-.192-.508-.298-.866-.298-1.182.104-1.61 1.513-.738 2.22zM27.97 22.99c-.282.009-.552.113-.767.295l-7.5 6.257a1.25 1.25 0 000 1.92l7.5 6.247c1.29 1.201 3.012-.87 1.596-1.92l-6.347-5.287 6.347-5.296c.924-.756.364-2.253-.83-2.217zM3 50.502h69.998v6.245c0 .714-.531 1.245-1.246 1.245H4.255c-.714 0-1.255-.53-1.255-1.245v-6.245zm37.568 2.498l-5.129.002c-1.593.19-1.486 2.448.059 2.49H40.5c1.717.152 1.86-2.458.069-2.492zm-9.58 9.897c-.502-.01-.961.28-1.167.737-.602 1.292-1.68 2.8-3.542 4.36H24.25c-2.056 0-3.745 1.702-3.745 3.758v2.49a1.25 1.25 0 001.245 1.255h32.498a1.25 1.25 0 001.254-1.255v-2.49c0-2.056-1.699-3.757-3.754-3.757H49.72c-1.862-1.562-2.94-3.07-3.542-4.36a1.25 1.25 0 10-2.266 1.057c.487 1.045 1.231 2.166 2.234 3.303H29.853c1.002-1.137 1.747-2.258 2.234-3.303a1.25 1.25 0 00-1.099-1.795zm-6.738 7.6h27.498c.714 0 1.255.541 1.255 1.255v1.245H23.004v-1.245c0-.714.53-1.255 1.245-1.255z" fill="#000"></path></svg>